<svg width="480" height="480" viewBox="0 0 480 480" fill="none" xmlns="http://www.w3.org/2000/svg">
<g clip-path="url(#clip0_10015_9023)">
<path fill-rule="evenodd" clip-rule="evenodd" d="M474.908 240L406.15 240C406.15 117.648 315.23 18.4615 203.073 18.4615C174.483 18.4615 147.272 24.9069 122.596 36.5382L157.078 96.2627C51.1179 157.439 10.6805 285.771 66.7586 382.902C81.0269 407.615 100.169 427.927 122.525 443.47L156.924 383.891C262.884 445.067 394.242 415.92 450.32 318.79C464.625 294.013 472.65 267.205 474.908 240ZM478.852 216.379C466.986 94.9176 364.578 0 240 0C163.151 0 94.7381 36.1193 50.8117 92.3077H51.0179C-7.42554 167.125 -18.0776 272.884 32.3073 360.153C70.7317 426.706 136.218 467.894 206.842 477.841L206.793 477.756C300.725 490.842 397.507 447.187 447.845 360C473.943 314.797 483.665 264.634 478.852 216.379Z" fill="url(#paint0_linear_10015_9023)"/>
</g>
<defs>
<linearGradient id="paint0_linear_10015_9023" x1="-93.0002" y1="333.076" x2="343.576" y2="-103.5" gradientUnits="userSpaceOnUse">
<stop stop-color="#DEDEDE"/>
<stop offset="0.394446" stop-color="#E3E3E3"/>
<stop offset="1" stop-color="#D4D4D4"/>
</linearGradient>
<clipPath id="clip0_10015_9023">
<rect width="480" height="480" fill="white"/>
</clipPath>
</defs>
</svg>
