<svg width="17" height="16" viewBox="0 0 17 16" fill="none" xmlns="http://www.w3.org/2000/svg">
<g clip-path="url(#clip0_10113_10365)">
<path d="M16.2398 7.99978C16.2398 3.58701 12.6625 0.00976562 8.24978 0.00976562C3.83701 0.00976562 0.259766 3.58701 0.259766 7.99978C0.259766 11.9878 3.18159 15.2933 7.00134 15.8927V10.3094H4.97263V7.99978H7.00134V6.23948C7.00134 4.23698 8.19419 3.13087 10.0193 3.13087C10.8935 3.13087 11.8078 3.28692 11.8078 3.28692V5.25321H10.8003C9.80775 5.25321 9.49823 5.86912 9.49823 6.50099V7.99978H11.7142L11.36 10.3094H9.49822V15.8927C13.318 15.2933 16.2398 11.9878 16.2398 7.99978Z" fill="#1877F2"/>
<path d="M11.36 10.3094L11.7142 7.99977H9.49824V6.50097C9.49824 5.86911 9.80778 5.2532 10.8003 5.2532H11.8079V3.28691C11.8079 3.28691 10.8935 3.13086 10.0193 3.13086C8.19422 3.13086 7.00137 4.23697 7.00137 6.23947V7.99977H4.97266V10.3094H7.00137V15.8927C7.41436 15.9574 7.83177 15.9899 8.24981 15.9898C8.67453 15.9898 9.09145 15.9565 9.49824 15.8927V10.3094H11.36Z" fill="white"/>
</g>
<defs>
<clipPath id="clip0_10113_10365">
<rect width="16" height="16" fill="white" transform="translate(0.25)"/>
</clipPath>
</defs>
</svg>
