<svg width="17" height="16" viewBox="0 0 17 16" fill="none" xmlns="http://www.w3.org/2000/svg">
<path d="M16.5823 8.1792C16.583 7.63427 16.5369 7.09028 16.4446 6.55322H8.90332V9.63304H13.2226C13.1342 10.1249 12.9472 10.5938 12.6727 11.0115C12.3982 11.4291 12.042 11.7869 11.6255 12.0631V14.0623H14.2033C15.7127 12.6706 16.5823 10.6126 16.5823 8.1792Z" fill="#4285F4"/>
<path d="M8.90356 15.994C11.0615 15.994 12.8785 15.2854 14.2035 14.0637L11.6257 12.0645C10.9083 12.551 9.98421 12.8287 8.90356 12.8287C6.81777 12.8287 5.0474 11.4226 4.41434 9.52783H1.75879V11.5881C2.42436 12.9125 3.44494 14.0259 4.70659 14.8039C5.96824 15.5819 7.42131 15.9939 8.90356 15.994Z" fill="#34A853"/>
<path d="M4.41427 9.52743C4.07959 8.53456 4.07959 7.45936 4.41427 6.46649V4.40625H1.75873C1.19882 5.5204 0.907227 6.75004 0.907227 7.99696C0.907227 9.24388 1.19882 10.4735 1.75873 11.5877L4.41427 9.52743Z" fill="#FBBC04"/>
<path d="M8.90356 3.16586C10.044 3.14723 11.1459 3.5781 11.9712 4.36535L14.2535 2.08298C12.8063 0.723637 10.889 -0.0226645 8.90356 0.000524654C7.42131 0.000592209 5.96824 0.412634 4.70659 1.19065C3.44494 1.96866 2.42436 3.08203 1.75879 4.40645L4.41434 6.46669C5.0474 4.57193 6.81777 3.16586 8.90356 3.16586Z" fill="#EA4335"/>
</svg>
