<svg width="794" height="173" viewBox="0 0 794 173" fill="none" xmlns="http://www.w3.org/2000/svg">
<g clip-path="url(#clip0_10015_13323)">
<path d="M159.186 172L159.186 1" stroke="#F4F4F5"/>
<path d="M317.373 172L317.373 1" stroke="#F4F4F5"/>
<path d="M475.559 172L475.559 1" stroke="#F4F4F5"/>
<path d="M633.744 172L633.744 1" stroke="#F4F4F5"/>
<path d="M1 103.567L19.1902 117.49C29.2849 125.217 42.9958 126.235 54.1213 120.085L66.7697 113.093C77.3377 107.251 90.2944 107.856 100.273 114.656L111.651 122.411C118.952 127.387 127.986 129.122 136.611 127.207L154.52 123.229C156.413 122.809 158.264 122.217 160.049 121.461L196.554 106.018C200.379 104.399 203.853 102.052 206.781 99.1066L220.802 85.0021C230.557 75.1889 245.514 72.7571 257.875 78.9747L259.029 79.5549C267.25 83.6897 276.852 84.0856 285.385 80.6414L305.33 72.5911C311.822 69.971 318.993 69.5518 325.746 71.3976L352.718 78.7709C355.628 79.5664 358.412 80.7695 360.985 82.3444L378.839 93.2718C389.153 99.5841 402.144 99.5435 412.419 93.1669L421.663 87.4296C429.318 82.6784 438.622 81.3746 447.288 83.8384L456.074 86.3362C468.463 89.8584 481.757 85.6094 489.806 75.5543L495.971 67.8536C505.276 56.2298 521.369 52.5599 534.793 59.0003L546.528 64.63C551.873 67.1944 556.401 71.1931 559.606 76.1804L584.884 115.51C590.771 124.671 600.914 130.209 611.803 130.209H626.619C631.104 130.209 635.539 131.152 639.636 132.976L664.691 144.132C673.07 147.863 682.647 147.82 690.991 144.012L717.84 131.762C720.101 130.73 722.234 129.439 724.197 127.913L736.731 118.17C747.881 109.501 763.396 109.169 774.909 117.351L793 130.209" stroke="#A1A1AA" stroke-width="2" stroke-linecap="round"/>
<path d="M1 62.4743L24.6505 52.5023C35.7641 47.8163 48.5685 49.7773 57.7703 57.5745L74.418 71.681C81.83 77.9617 91.694 80.535 101.23 78.6756L115.408 75.911C119.423 75.1281 123.551 75.1223 127.569 75.8939L143.407 78.9361C152.294 80.6431 161.488 78.5076 168.713 73.0585L206.095 44.8629L216.193 36.5821C230.457 24.8839 251.632 27.6377 262.43 42.5953L267.201 49.2045C273.217 57.5377 282.869 62.4743 293.147 62.4743H307.062C312.828 62.4743 318.487 64.0323 323.441 66.9837L358.521 87.8845C360.074 88.8094 361.545 89.8641 362.919 91.0373L379.016 104.778C389.576 113.794 404.745 114.97 416.569 107.69L433.017 97.5641C434.528 96.6334 435.96 95.5787 437.296 94.4107L464.799 70.3779C470.63 65.2824 478.111 62.4743 485.855 62.4743H502.53C510.274 62.4743 517.755 65.2824 523.586 70.3779L547.794 91.5315C551.288 94.5845 555.404 96.8411 559.856 98.1452L588.714 106.597C594.483 108.287 599.66 111.568 603.652 116.064L616.6 130.652C626.208 141.476 641.886 144.504 654.834 138.035L674.99 127.965C676.549 127.186 678.042 126.281 679.454 125.258L713.96 100.276C717.7 97.5677 721.982 95.7014 726.512 94.8046L743.479 91.4452C750.579 90.0396 757.945 91.0821 764.376 94.4027L793 109.183" stroke="#60A5FA" stroke-width="2" stroke-linecap="round"/>
<path d="M1 138.621L34.886 146.517C42.7283 148.344 50.9712 147.148 57.9703 143.166L72.4059 134.955C82.5651 129.175 95.0669 129.395 105.017 135.527L114.888 141.61C122.867 146.527 132.6 147.699 141.518 144.817L155.888 140.172C159.067 139.145 162.388 138.621 165.729 138.621H207.306H235.997C241.088 138.621 246.106 139.836 250.634 142.165L264.315 149.203C272.987 153.663 283.219 153.926 292.108 149.918L315.087 139.555C316.465 138.933 317.886 138.41 319.338 137.989L352.148 128.485C358.66 126.599 365.603 126.83 371.975 129.144L384.902 133.838C393.297 136.887 402.584 136.289 410.519 132.188L433.984 120.059C435.76 119.142 437.618 118.392 439.533 117.821L472.927 107.863C474.464 107.405 475.964 106.832 477.414 106.149L495.451 97.6565C507.739 91.8711 522.34 94.4724 531.874 104.145L554.112 126.708C556.876 129.513 560.134 131.783 563.722 133.405L599.019 149.359L618.168 158.911C628.229 163.929 640.186 163.299 649.664 157.252L678.862 138.621L716.787 110.449C719.704 108.282 722.969 106.628 726.442 105.557L751.419 97.8571C754.473 96.9156 757.651 96.4369 760.846 96.4369H793" stroke="#FF6060" stroke-width="2" stroke-linecap="round"/>
<path d="M1 149.412L46.548 144.059H88.3451L117.006 147.467C123.466 148.235 130.007 147.016 135.757 143.973L144.325 139.436C154.158 134.231 165.989 134.506 175.568 140.163L195.124 151.711C202.569 156.108 211.476 157.304 219.818 155.029L230.919 152C238.811 149.847 247.227 150.798 254.44 154.658L265.666 160.665C273.238 164.717 282.121 165.556 290.317 162.992L316.621 154.765L351.771 142.224C358.179 139.938 365.148 139.754 371.668 141.698L384.094 145.403C392.662 147.958 401.908 146.812 409.593 142.243L424.373 133.454C431.875 128.993 440.874 127.79 449.284 130.124L458.191 132.596C468.504 135.457 479.565 132.974 487.665 125.978L498.199 116.879C508.512 107.971 523.334 106.572 535.131 113.391L554.526 124.602C556.673 125.844 558.958 126.831 561.333 127.545L598.483 138.706L628.841 152.49C632.156 153.996 635.703 154.924 639.33 155.236L664.463 157.396C673.305 158.157 682.066 155.21 688.652 149.262L709.064 130.826C716.381 124.217 726.337 121.35 736.048 123.056L752.743 125.988C754.571 126.309 756.423 126.471 758.279 126.471H793" stroke="#4ADE80" stroke-width="2" stroke-linecap="round"/>
</g>
<rect x="0.5" y="0.5" width="793" height="172" rx="8.5" stroke="#E4E4E7"/>
<defs>
<clipPath id="clip0_10015_13323">
<rect x="1" y="1" width="792" height="171" rx="8" fill="white"/>
</clipPath>
</defs>
</svg>
