<svg width="140" height="140" viewBox="0 0 140 140" fill="none" xmlns="http://www.w3.org/2000/svg">
<circle cx="70" cy="70" r="70" fill="#4B5563"/>
<path d="M70 0C79.5481 1.1386e-07 88.9952 1.95335 97.7604 5.73991C106.526 9.52647 114.423 15.0662 120.968 22.0183C127.513 28.9704 132.566 37.188 135.817 46.1656C139.068 55.1431 140.448 64.6909 139.873 74.2216C139.297 83.7523 136.777 93.0645 132.469 101.585C128.161 110.106 122.155 117.656 114.821 123.769C107.486 129.883 98.979 134.431 89.8217 137.135C80.6644 139.839 71.0508 140.64 61.5721 139.491L70 70V0Z" fill="#9CA3AF"/>
<path d="M70 0C57.0938 -1.53905e-07 44.4389 3.56809 33.4336 10.31C22.4283 17.0519 13.5011 26.7051 7.63856 38.203L70 70V0Z" fill="#E5E7EB"/>
</svg>
