<svg width="190" height="86" viewBox="0 0 190 86" fill="none" xmlns="http://www.w3.org/2000/svg">
<path d="M13.9766 30.4784C12.8544 30.2865 11.4966 30.1768 9.83581 30.1768H0V55.4172H6.73862V45.1225H9.83581C15.9516 45.1225 19.6716 42.1333 19.6716 37.2136C19.666 33.7308 17.4609 31.1201 13.9766 30.4784ZM8.59581 40.7293H6.73862V34.751H8.75291C11.5808 34.751 12.7815 35.5846 12.7815 37.5153C12.7759 39.4842 11.1487 40.7293 8.59581 40.7293Z" fill="#ED1B2D"/>
<path d="M38.4061 43.6471C37.8619 43.3071 37.4748 43.1919 36.549 42.967C40.1904 42.3637 42.6648 39.7914 42.6648 36.6487C42.6648 33.3195 40.1118 30.8185 36.3133 30.3687C35.2697 30.2535 34.2205 30.1768 32.6382 30.1768H22.9932V55.4172H29.7318V45.0457H30.3153C31.5553 45.0457 32.4811 45.5777 32.9861 46.5979L37.4018 55.4172H45.2233L39.9211 45.3145C39.6069 44.7057 38.9841 44.064 38.4061 43.6471ZM31.3589 40.6909H29.7318V34.6742H31.6283C33.1768 34.6742 33.9511 34.8278 34.6076 35.2446C35.3819 35.7766 35.7691 36.5335 35.7691 37.5153C35.7691 39.5226 34.1475 40.6909 31.3589 40.6909Z" fill="#ED1B2D"/>
<path d="M65.2312 43.7235C65.2312 47.0143 64.8441 48.3416 63.6041 49.3234C62.5998 50.0803 61.1241 50.5355 59.5026 50.5355C57.9147 50.5355 56.6018 50.0803 55.7489 49.2466C54.7446 48.2648 54.5089 47.4696 54.5089 44.8205V43.5316V30.1709H47.8096V43.5316V44.7821C47.8096 49.5099 48.466 51.5556 50.6374 53.2998C52.7639 55 55.7096 55.9105 59.3455 55.9105C64.9563 55.9105 69.2935 53.5246 70.6906 49.5537C71.3471 47.7383 71.4649 46.7895 71.4649 43.537V30.1709H65.2312V43.7235Z" fill="#ED1B2D"/>
<path d="M121.907 55.8672C129.263 55.9056 133.6 50.5306 133.561 44.3604C133.561 39.5174 129.846 36.5666 125.083 36.5666C118.114 36.5282 113.238 41.2944 113.238 48.1832C113.272 53.1468 117.143 55.8672 121.907 55.8672ZM124.191 41.2231C126.048 41.2231 126.94 42.6601 126.94 44.8156C126.94 47.2727 125.621 51.0955 122.603 51.0571C120.824 51.0187 119.893 49.6202 119.893 47.3879C119.893 44.9692 121.29 41.2231 124.191 41.2231Z" fill="#ED1B2D"/>
<path d="M138.403 37.175L135.115 55.417H141.349L142.701 47.8482C144.02 45.5775 146.455 42.2099 149.479 42.2099C149.709 42.2099 149.905 42.2099 150.135 42.2483L152.15 37.1366C151.92 37.0214 151.297 36.835 150.444 36.835C148.043 36.835 145.641 38.0087 143.745 40.7346L144.362 37.175H138.403Z" fill="#ED1B2D"/>
<path d="M164.196 41.2232C165.744 41.2232 167.063 41.5249 168.106 42.0185L170.39 38.2341C168.533 37.1371 166.171 36.6435 164.038 36.6435C156.105 36.5667 151.919 41.3 151.958 47.8048C151.958 52.4229 155.095 55.7905 159.931 55.7905C163.96 55.7905 166.821 54.0519 168.566 52.8781L166.9 49.3954C165.43 50.1139 163.763 50.8707 162.097 50.8707C159.735 50.8707 158.573 49.3186 158.573 47.1247C158.579 44.0259 160.633 41.2232 164.196 41.2232Z" fill="#ED1B2D"/>
<path d="M182.729 36.6438C175.951 36.6054 171.114 41.3716 171.114 48.0738C171.114 52.9168 174.133 55.906 179.087 55.906C183.155 55.906 186.247 54.469 188.844 52.6535L187.178 49.3627C185.203 50.3829 182.959 51.2933 180.714 51.2933C178.392 51.2933 177.499 50.3116 177.499 48.3042C177.499 48.0409 177.539 47.7722 177.578 47.4705H189.54L189.731 46.412C189.922 45.3918 190 44.443 190 43.5709C190.006 39.1777 187.1 36.6438 182.729 36.6438ZM184.12 43.8342L178.274 43.9878C178.857 41.5635 180.367 40.2033 182.145 40.2033C183.576 40.2033 184.199 40.9986 184.199 42.6276C184.199 43.0005 184.159 43.379 184.12 43.8342Z" fill="#ED1B2D"/>
<path d="M161.926 64.4455C145.542 90.4768 109.448 85.2485 93.8081 60.0186L87.0898 63.716C89.8065 70.0497 94.5859 75.7645 101.654 80.0975C108.372 83.9441 116.043 85.9835 123.815 86.0001C131.294 86.0167 138.88 84.1542 145.83 80.2246C152.768 76.2895 158.201 70.7903 161.926 64.4455Z" fill="#ED1B2D"/>
<path d="M153.861 25.6761C138.147 0.748121 101.903 -4.41767 85.448 21.3021H85.4424C89.1896 15.0278 94.6463 9.5944 101.609 5.71187C108.566 1.8348 116.162 -0.00544855 123.662 1.21162e-05C138.917 0.00547278 153.753 7.64494 161.927 21.3075L153.861 25.6761Z" fill="#ED1B2D"/>
<path d="M106.377 13.4219L102.606 6.83398C96.1474 9.49791 90.3196 14.1846 85.9009 21.1208C78.2076 34.048 77.5933 50.5456 85.7769 64.44C89.7842 71.2435 95.3922 76.5658 101.868 80.2246V80.2191C75.3163 64.1581 80.648 28.7644 106.377 13.4219Z" fill="#ED1B2D"/>
<path d="M116.611 34.2575L117.351 30.144H98.5326L98.0164 32.9906L93.9766 55.39H100.861L102.797 44.662H110.169L110.91 40.5485H103.537L104.671 34.2575H116.611Z" fill="#ED1B2D"/>
</svg>
