<svg width="162" height="29" viewBox="0 0 162 29" fill="none" xmlns="http://www.w3.org/2000/svg">
<path fill-rule="evenodd" clip-rule="evenodd" d="M96.7734 5.07861H99.8846V22.2334L107.431 5.07861H109.8L117.082 22.1363V5.09131H120.074V20.3414H126.733V22.3966H117.082V22.3839H113.812L111.932 17.7892H104.558L102.599 22.3839H99.8846H99.8184H96.7734V5.07861ZM20.0804 5.10547C21.0071 5.10547 21.8411 5.14474 22.5163 5.39345C24.4889 6.12651 25.7996 7.64497 25.7996 10.0405C25.7996 12.1349 24.4889 13.8759 22.6487 14.609L27.8516 22.4108H24.1579L19.6435 15.3551H16.5456V22.4108H13.3418V5.10547H20.0804ZM19.3787 13.3654H16.5588V6.88574H19.5905C22.0927 6.88574 22.4501 8.84927 22.4501 10.0928C22.4501 12.292 21.3513 13.3654 19.3787 13.3654ZM6.97845 5.1005C6.76956 5.1027 6.54781 5.10505 6.31186 5.10505H0.5V22.4103H3.67733V15.7998H6.36481C8.0991 15.7998 9.5289 15.551 10.5615 14.8049C11.9251 13.8231 12.8783 12.4094 12.8783 10.4982C12.8783 7.56601 11.3559 5.58938 8.58894 5.15741C8.14865 5.08815 7.62516 5.09367 6.97845 5.1005ZM9.64805 10.328C9.64805 11.7942 9.23765 13.8231 6.5634 13.9017V13.9148H3.66409V6.9115H6.35157C7.88728 6.9115 9.64805 7.27802 9.64805 10.328ZM38.3232 22.4097C39.2896 21.9384 40.3355 21.153 40.8518 20.4985H44.7573C46.2665 20.4985 47.4448 20.0273 48.345 19.3858C50.0793 18.1554 51.0722 16.074 51.0722 13.2858C51.0722 10.851 49.6292 8.49477 48.345 7.81408L48.2262 7.75136C46.9425 7.07349 46.7089 6.95012 44.6911 6.95012H41.5535V16.0478C41.5535 17.9852 41.1563 19.3597 39.9781 20.5247C38.535 21.9515 36.3506 22.7762 34.0073 22.7762C29.0825 22.7762 26.1699 20.4985 26.1699 16.4536V5.09131H29.1487V16.0478C29.1487 16.8725 29.2281 17.5532 29.3737 18.0768C29.8371 19.6346 31.717 20.6294 34.0073 20.6294C36.9199 20.6294 38.4423 19.0324 38.4423 16.0871V5.09131H45.8164C47.3653 5.09131 48.7025 5.30075 49.7351 5.75891C52.1537 6.82054 53.8873 8.83618 54.3428 11.8547V5.1044H65.053V6.98939H57.401V12.448H64.6823V14.4508H57.401V20.3807H65.8473V5.1044H68.4819L78.9273 17.8543V5.09131H96.2438V7.04175H90.551V22.3966H87.4399V7.04175H81.2574V22.4097H78.742L68.1906 9.73834V22.4097H54.3428V15.0713C53.7579 18.886 50.9521 22.4097 44.6646 22.4097H38.3364H38.3232ZM111.124 15.8126H105.392L108.225 8.91405L111.124 15.8126Z" fill="#ED1B2D"/>
<path d="M140.275 0.222656C140.593 0.222656 140.527 0.706995 141.202 0.706995C141.586 0.706995 141.639 0.523731 142.102 0.523731C143.426 0.523731 143.916 2.10765 144.843 2.10765C145.266 2.10765 145.306 1.83275 145.756 1.83275C145.928 1.83275 146.233 1.93748 146.352 2.05529C146.471 2.1731 146.736 2.39563 147.411 4.189C147.477 4.38535 147.385 4.46389 147.279 4.46389C147.173 4.46389 146.974 4.37226 146.498 3.88792C146.233 3.62612 146.008 3.74393 144.856 3.02397C144.313 2.69671 143.797 2.19928 143.214 1.98984C142.632 1.7673 141.652 1.68876 141.282 1.59713C140.792 1.49241 140.037 1.12588 140.037 0.563002C140.037 0.379739 140.143 0.222656 140.275 0.222656Z" fill="#71717A"/>
<path d="M146.856 0.0130902C147.12 0.0130902 147.332 0.418887 147.624 0.693782C148.272 1.3352 149.305 0.929406 150.086 1.68864C150.285 1.88499 150.443 2.35624 150.443 2.8144C150.443 3.27256 150.338 3.73072 150.112 3.73072C149.556 3.73072 149.914 2.85367 148.802 2.18607C147.69 1.53156 147.491 1.50538 147.041 1.04722C146.578 0.58906 146.564 0.405797 146.564 0.287985C146.564 0.170173 146.657 0 146.869 0" fill="#71717A"/>
<path d="M151.886 2.08057C152.164 2.08057 152.085 2.46018 152.389 2.7089C152.694 2.9707 152.892 2.87907 153.316 3.29796C153.514 3.48122 153.554 3.61212 153.554 3.66448C153.554 3.71685 153.448 4.37136 152.76 4.37136C152.601 4.37136 152.495 4.33209 152.376 4.12264C152.217 3.80848 152.283 3.35032 151.939 2.94452C151.634 2.59109 151.595 2.5649 151.595 2.35546C151.595 2.14602 151.793 2.09366 151.886 2.09366" fill="#71717A"/>
<path d="M152.985 5.47179C153.845 5.72051 154.282 6.06085 154.282 6.58446C154.282 7.10807 154.07 7.14734 153.885 7.40915C153.753 7.59241 153.607 7.86731 153.634 8.6789C153.634 8.83598 153.581 8.92761 153.461 8.92761C153.329 8.92761 153.276 8.87525 153.276 8.74435C153.276 8.66581 153.329 8.61345 153.329 8.548C153.329 8.46946 153.342 8.08984 153.078 7.85421C152.296 7.16043 148.417 6.67609 145.955 6.67609C142.976 6.67609 140.58 7.30443 139.918 7.30443C138.7 7.30443 138.131 6.70227 138.131 6.25721C138.131 5.81214 138.396 5.7336 138.396 5.51106C138.396 5.28853 138.316 5.26235 138.316 5.07909C138.316 4.89582 138.475 4.5293 138.621 4.5293C138.846 4.5293 138.819 4.76492 139.031 5.14454C139.296 5.6027 139.865 6.20485 140.938 6.20485C141.891 6.20485 142.698 5.85141 144.102 5.53724C145.823 5.14454 147.186 4.96127 148.537 4.96127C149.172 4.96127 151.489 4.98745 152.972 5.4587" fill="#ED1B2D"/>
<path d="M153.276 10.2622C153.461 10.2622 153.567 10.3146 153.567 10.4324C153.567 10.5502 153.382 10.5502 153.263 10.5633C153.144 10.5895 152.416 10.7204 152.085 11.244C152.032 11.3356 152.085 11.4011 152.151 11.4403C152.217 11.4665 153.064 11.8854 153.064 12.1865C153.064 12.4875 152.416 12.7755 152.217 12.7755C152.018 12.7755 151.952 12.5399 151.952 12.5006C151.952 12.4221 152.138 12.3174 152.138 12.2388C152.138 12.1472 151.979 12.0425 151.886 12.0425C151.793 12.0425 151.754 12.0817 151.701 12.2912C151.648 12.5137 151.462 13.3646 151.423 13.8882C151.383 14.4249 151.211 15.747 151.211 15.9303C151.211 16.1004 151.184 16.5717 150.8 16.8466C150.416 17.1084 150.085 17.2917 150.085 17.2917C150.085 17.2917 149.94 17.3833 149.887 17.3833C149.847 17.3833 149.715 17.2655 149.556 17.1477C149.41 17.0168 149.238 17.0168 149.132 17.0168C148.934 17.0168 148.55 17.3178 148.259 17.3178C147.967 17.3178 147.385 17.0037 147.385 16.8204C147.385 16.7681 147.504 16.7157 147.53 16.7157C147.663 16.7157 147.875 16.8597 148.153 16.8597C148.431 16.8597 148.682 16.6241 149.026 16.6241C149.238 16.6241 149.702 16.7288 150.085 16.7288C150.469 16.7288 150.602 16.6371 150.668 16.5324C150.721 16.4146 150.853 16.2837 150.853 15.8517C150.853 15.4198 150.575 14.006 150.575 13.129C150.575 12.2519 150.734 11.5058 151.171 11.0738C151.608 10.6418 152.561 10.2884 153.236 10.2884" fill="#71717A"/>
<path d="M153.819 12.7636C153.925 12.7636 154.044 12.8945 154.044 13.2479C154.044 13.6014 153.78 15.9838 153.131 17.6462C152.496 19.2956 152.31 19.3087 151.741 20.2643C151.185 21.2068 150.735 22.2278 150.126 22.83C149.901 23.0656 149.543 23.3405 148.709 23.3405C147.875 23.3405 146.67 23.1572 145.32 22.6205C143.97 22.0707 142.619 21.2853 141.812 20.4868C141.693 20.369 141.759 20.2643 141.971 20.369C142.169 20.4868 143.268 21.3246 145.373 21.9529C146.895 22.4111 147.319 22.4111 147.968 22.4111C148.577 22.4111 149.239 22.5158 150.02 21.7435C150.788 20.9842 151.436 19.6883 151.714 19.1909C151.992 18.6935 152.548 17.8164 153.065 16.2194C153.594 14.6093 153.687 13.7192 153.74 13.0123C153.74 12.8552 153.766 12.7505 153.846 12.7505" fill="#71717A"/>
<path d="M148.576 17.9985C148.868 17.9985 149.119 18.4174 149.45 18.4174C149.781 18.4174 149.874 18.0509 150.059 18.0509C150.245 18.0509 150.311 18.4698 150.377 18.6007C150.443 18.7578 150.496 18.8232 150.496 18.8756C150.496 18.9018 150.417 18.9672 150.337 18.9672C150.258 18.9672 150.112 18.8232 149.768 18.8232C149.503 18.8232 149.305 18.9934 149.291 19.0327C149.278 19.0719 149.225 19.0588 149.172 19.0327C149.066 18.9672 148.841 18.6007 148.484 18.6007C148.285 18.6007 148.02 18.7316 147.742 18.9018C147.478 19.0719 147.253 19.1243 147.027 19.1243C146.816 19.1243 146.524 19.0458 146.524 18.9018C146.524 18.8101 146.644 18.7578 146.736 18.7578C146.948 18.7578 147.16 18.8101 147.636 18.5483C147.967 18.352 148.325 17.9985 148.59 17.9985" fill="#71717A"/>
<path d="M147.637 19.4123C147.796 19.4123 148.061 19.7265 148.868 19.7265C149.676 19.7265 149.861 19.373 150.033 19.373C150.126 19.373 150.139 19.4778 150.139 19.517C150.139 19.5563 149.848 20.5512 149.027 20.5512C148.551 20.5512 148.034 20.1454 147.849 19.9621C147.664 19.7788 147.531 19.5956 147.531 19.517C147.531 19.4385 147.597 19.4123 147.637 19.4123Z" fill="#71717A"/>
<path d="M146.233 11.0086C146.789 11.0086 148.034 11.1395 148.034 11.4537C148.034 11.6369 147.477 11.4537 147.054 11.4537C146.63 11.4537 146.577 11.4799 146.577 11.506C146.577 11.5322 146.577 11.5584 146.617 11.5846C146.657 11.6238 146.935 11.9249 146.935 12.0035C146.935 12.3307 146.087 12.6711 145.889 12.6711C145.77 12.6711 145.545 12.5402 145.545 12.3962C145.545 12.2914 145.995 12.1867 145.995 12.082C145.995 11.9773 145.73 11.7547 145.492 11.7547C145.253 11.7547 144.525 12.2653 144.433 12.2653C144.327 12.2653 144.313 12.1998 144.313 12.1082C144.313 12.0427 144.38 11.8987 144.38 11.8333C144.38 11.6108 144.221 11.6238 144.221 11.4406C144.221 11.3359 144.353 11.1788 145.068 11.0741C145.783 10.9824 145.955 10.9824 146.233 10.9824" fill="#71717A"/>
<path d="M145.902 9.46387C146.472 9.46387 147.689 9.5555 147.875 9.59477C148.073 9.63404 148.113 9.71258 148.113 9.76494C148.113 9.85657 148.047 9.86966 147.822 9.86966C147.411 9.86966 146.366 9.86966 145.293 10.1969C143.612 10.7074 143.374 11.1918 143.109 11.1918C143.029 11.1918 142.884 11.0871 142.884 10.9823C142.884 10.8776 143.056 10.6289 143.056 10.4587C143.056 10.3147 142.924 10.1707 142.924 10.0922C142.924 9.79112 144.327 9.46387 145.902 9.46387Z" fill="#71717A"/>
<path d="M160.676 8.95312C161.524 8.95312 161.868 9.77781 161.868 10.7596C161.868 10.9167 161.802 11.1654 161.656 11.1654C161.457 11.1654 161.722 10.6287 161.206 10.6287C161.074 10.6287 160.848 10.7596 160.637 10.9559C160.438 11.1654 159.18 12.8278 158.267 15.603C157.817 16.9905 157.605 17.8414 157.605 18.5875C157.605 19.085 157.751 19.4515 157.751 19.6217C157.751 19.9358 157.42 19.7264 157.367 19.6348C157.248 19.4253 157.022 18.8232 157.022 17.9985C157.022 17.1738 157.367 15.1055 158.029 13.0111C158.373 11.8592 159.379 8.95312 160.676 8.95312Z" fill="#71717A"/>
<path d="M158.188 22.3193C158.294 22.3193 158.387 22.3717 158.387 22.4241C158.387 22.5288 157.963 22.8822 157.778 23.0786C157.5 23.3796 157.42 23.8771 157.169 23.8771C157.089 23.8771 157.036 23.7854 157.036 23.72C157.036 23.6545 157.063 23.5891 157.063 23.5367C157.063 23.288 156.745 23.3535 156.745 23.1571C156.745 23.0131 157.208 22.712 157.407 22.5942C157.592 22.4764 158.016 22.3193 158.188 22.3193Z" fill="#71717A"/>
<path d="M157.844 24.2959C157.976 24.2959 158.082 24.3483 158.082 24.4006C158.082 24.5184 157.579 24.8064 157.486 24.9111C157.394 25.0028 156.877 25.6835 156.798 26.0631C156.718 26.4558 156.599 26.5736 156.48 26.5736C156.242 26.5736 156.387 26.194 156.215 26.0631C156.083 25.9714 155.752 26.0107 155.752 25.7358C155.752 25.5526 156.056 25.2646 156.348 25.0028C156.639 24.741 157.235 24.309 157.857 24.309" fill="#71717A"/>
<path d="M155.832 20.6435C155.951 20.6435 156.057 20.6958 156.11 20.8136C156.176 20.9184 156.15 20.9838 156.255 21.1016C156.375 21.2063 156.745 21.2587 156.745 21.442C156.745 21.6252 156.533 21.6252 156.441 21.6907C156.335 21.7561 156.057 21.887 155.845 22.2536C155.633 22.6201 155.514 23.1044 155.474 23.7458C155.435 24.4004 155.21 25.0418 154.879 25.6047C154.508 26.1937 153.978 26.665 153.674 27.1493C153.422 27.5551 153.515 28.0133 153.263 28.0133C153.012 28.0133 152.959 27.3195 152.959 27.0708C152.959 26.822 153.025 25.9974 153.674 25.3952C154.389 24.7276 154.971 24.6883 154.971 23.6019C154.971 22.9343 154.892 22.7117 154.892 22.2928C154.892 21.8739 155.037 20.6304 155.832 20.6304" fill="#71717A"/>
<path d="M127.342 5.72035C127.779 5.72035 127.302 5.89052 127.977 6.55813C128.295 6.87229 128.48 6.9901 129.222 6.9901C129.672 6.9901 130.307 6.89847 131.923 6.1916C132.558 5.90361 133.591 5.60254 134.319 5.60254C135.272 5.60254 136 6.0607 136.53 6.44031C137.046 6.81993 137.681 7.35663 137.959 7.56607C138.237 7.77552 138.648 8.02423 138.807 8.08968C138.966 8.15513 138.992 8.24677 138.939 8.36458C138.886 8.49548 138.714 8.75728 138.661 8.82274C138.608 8.88819 138.436 8.97982 138.317 9.01909C138.211 9.07145 137.787 9.22853 137.284 9.60815C136.781 9.98777 135.934 10.4459 134.901 10.4459C133.869 10.4459 132.293 10.0401 131.406 10.0401C131.036 10.0401 130.493 10.2365 130.109 10.6161C129.963 10.7732 129.831 11.035 129.751 11.1266C129.645 11.2313 129.314 11.4277 129.195 11.4277C129.076 11.4277 128.864 11.3622 128.864 11.2313C128.864 10.9957 129.367 10.9041 129.367 10.5114C129.367 10.1187 129.235 10.1056 129.235 9.92232C129.235 9.73905 129.381 9.4118 129.619 9.17617C130.122 8.67874 131.419 8.39076 132.584 8.39076C133.432 8.39076 135.073 8.74419 136.199 8.74419C136.675 8.74419 137.046 8.67874 137.258 8.58711C137.549 8.45621 137.483 8.28604 137.35 8.28604C137.218 8.28604 137.231 8.3384 136.914 8.3384C136.622 8.3384 135.934 8.18131 135.351 7.78861C134.769 7.40899 133.829 6.87229 132.942 6.87229C132.055 6.87229 131.393 7.19955 131.115 7.30427C130.453 7.55298 128.904 8.44312 128.07 8.44312C127.236 8.44312 126.27 8.03732 126.27 7.33045C126.27 6.62358 126.984 6.68903 126.984 6.27014C126.984 6.1916 126.945 6.13924 126.945 6.0607C126.945 5.98216 127.024 5.70726 127.315 5.70726" fill="#ED1B2D"/>
<path d="M137.522 11.6758C137.708 11.6758 137.681 11.8721 137.8 12.003C137.919 12.1339 137.972 11.9769 138.131 12.147C138.29 12.3172 138.211 12.4088 138.317 12.5136C138.422 12.6183 138.608 12.6052 138.621 12.6968C138.648 13.0764 138.475 13.6655 138.475 14.5818C138.475 15.2232 138.595 15.9563 138.806 16.6108C138.899 16.8726 138.701 16.925 138.608 16.7417C137.933 15.5112 137.337 13.6917 137.337 12.2779C137.337 11.9376 137.39 11.6889 137.522 11.6889" fill="#71717A"/>
<path d="M136.675 13.0376C136.754 13.0376 136.794 13.09 136.794 13.1947C136.794 13.2994 136.503 14.255 136.066 14.8179C135.629 15.3807 134.941 16.1138 134.676 16.1138C134.57 16.1138 134.57 15.9829 134.544 15.9436C134.53 15.8913 134.438 15.7996 134.61 15.6556C134.782 15.5247 134.795 15.4462 134.795 15.3546C134.795 15.2629 134.729 15.1451 134.729 15.0666C134.729 14.988 134.795 14.8048 134.901 14.7524C135.007 14.687 135.669 14.3597 136.053 13.9016C136.423 13.4565 136.543 13.0507 136.675 13.0507" fill="#71717A"/>
<path d="M137.059 21.5724C137.138 20.8393 137.218 20.0408 137.271 19.2947C137.721 19.5041 138.065 19.7659 138.065 20.3157C138.065 20.9702 137.324 21.4284 137.059 21.5724ZM137.337 18.1035C137.337 17.9857 137.337 17.8679 137.337 17.7631C137.337 16.2185 137.006 15.2236 136.781 15.2236C136.476 15.2236 136.119 16.7421 135.973 17.5406C135.47 17.3966 135.126 17.3573 134.835 17.3573C134.054 17.3573 133.895 17.5275 133.895 17.7239C133.895 17.9202 134.067 18.2213 134.266 18.4176C134.742 18.8889 135.285 18.8758 135.815 18.902C135.722 19.8576 135.642 21.0881 135.642 21.5331C135.642 21.664 135.642 21.8866 135.656 22.1745C135.113 22.4494 134.239 22.9338 133.935 23.2218C133.511 23.6537 133.458 23.8894 133.458 24.1904C133.458 25.2377 134.398 25.1853 134.398 25.9053C134.398 26.1802 134.213 26.4681 134.438 26.4681C134.716 26.4681 134.941 25.9445 134.941 25.6173C134.941 25.29 134.663 24.7664 134.663 24.4261C134.663 24.0857 134.782 23.7192 135.258 23.2479C135.378 23.1301 135.51 23.0385 135.669 22.9469C135.695 23.8763 135.748 24.9497 135.775 25.2115C135.801 25.6304 135.828 26.6252 136.026 26.6252C136.225 26.6252 136.622 24.714 136.807 23.3788C136.847 23.0778 136.9 22.7112 136.953 22.3054C137.152 22.2007 137.363 22.096 137.549 21.9782C138.462 21.4284 139.071 20.787 139.071 20.0539C139.071 19.1638 138.237 18.5878 137.311 18.1297" fill="#71717A"/>
</svg>
